<svg width="40" height="41" viewBox="0 0 40 41" fill="none" xmlns="http://www.w3.org/2000/svg">
<path d="M34.1562 5.84141C32.3141 3.98223 30.1204 2.50827 27.7029 1.50541C25.2854 0.502549 22.6925 -0.00915186 20.0753 0.000123884C9.10849 0.000123884 0.170768 8.93533 0.160723 19.9047C0.160723 23.418 1.07986 26.8359 2.81517 29.862L0 40.1809L10.5575 37.4135C13.4782 39.0029 16.7502 39.836 20.0753 39.8369H20.0854C31.0547 39.8369 39.9899 30.9017 40 19.9223C40.0025 17.3056 39.4872 14.7143 38.4838 12.2977C37.4805 9.88101 36.0088 7.68679 34.1537 5.84141H34.1562ZM20.0753 36.4667C17.1095 36.4677 14.1981 35.6696 11.6474 34.1563L11.0447 33.7947L4.78152 35.4371L6.45404 29.3271L6.06228 28.6968C4.40434 26.0607 3.52749 23.0087 3.5334 19.8946C3.5334 10.7887 10.9593 3.36024 20.0854 3.36024C22.2595 3.35634 24.4129 3.78283 26.4214 4.61512C28.43 5.44741 30.2539 6.66903 31.788 8.20956C33.3275 9.74409 34.548 11.5682 35.379 13.5768C36.21 15.5853 36.6351 17.7386 36.6298 19.9122C36.6198 29.0508 29.1939 36.4667 20.0753 36.4667V36.4667ZM29.1537 24.076C28.659 23.8273 26.2155 22.6244 25.7559 22.4537C25.2988 22.2904 24.9648 22.205 24.6384 22.7023C24.3044 23.197 23.3501 24.3246 23.0638 24.6485C22.7775 24.9825 22.4812 25.0202 21.9839 24.7741C21.4892 24.523 19.8845 24.0006 17.9859 22.3005C16.5043 20.982 15.5123 19.3497 15.216 18.855C14.9297 18.3577 15.1883 18.0915 15.437 17.8429C15.6554 17.6219 15.9317 17.2603 16.1803 16.974C16.4314 16.6877 16.5143 16.4768 16.6775 16.1453C16.8408 15.8088 16.7629 15.5225 16.6399 15.2738C16.5143 15.0252 15.5223 12.5717 15.103 11.5822C14.7012 10.6053 14.2918 10.741 13.9854 10.7284C13.6991 10.7108 13.3651 10.7108 13.0311 10.7108C12.7789 10.7171 12.5307 10.7754 12.3021 10.8822C12.0735 10.9889 11.8694 11.1418 11.7027 11.3311C11.2456 11.8283 9.96735 13.0313 9.96735 15.4848C9.96735 17.9383 11.7504 20.2965 12.0015 20.6305C12.2476 20.9645 15.5023 25.9845 20.4972 28.1443C21.6775 28.6591 22.6067 28.9629 23.3325 29.194C24.5254 29.5757 25.6027 29.5179 26.4616 29.3949C27.4159 29.2492 29.4023 28.1895 29.8217 27.0267C30.2335 25.8615 30.2335 24.867 30.108 24.6586C29.9849 24.4476 29.6509 24.3246 29.1537 24.076V24.076Z" fill="white"/>
</svg>
